<?xml version="1.0"?>
<svg xmlns="http://www.w3.org/2000/svg" height="512px" viewBox="0 0 512 512" width="512px" class=""><g><g id="_3D" data-name="3D"><g fill="#57a4ff"><path d="m136 318 15.53-4.92-15.53 5.65-15.53-5.65z" data-original="#000000" class="" style="fill:#778E98" data-old_color="#000000"/><path d="m256 275.09-6.36 2.31-103.57-42.29z" data-original="#000000" class="" style="fill:#778E98" data-old_color="#000000"/><path d="m136 318 15.53-4.92-15.53 5.65-15.53-5.65z" data-original="#000000" class="" style="fill:#778E98" data-old_color="#000000"/><path d="m256 275.09-6.36 2.31-103.57-42.29z" data-original="#000000" class="" style="fill:#778E98" data-old_color="#000000"/><path d="m365.93 235.11-103.57 42.29-6.36-2.31z" data-original="#000000" class="" style="fill:#778E98" data-old_color="#000000"/><path d="m376 318v.73l-15.53-5.65z" data-original="#000000" class="" style="fill:#778E98" data-old_color="#000000"/><path d="m376 96v135l-10.07 4.11-103.57 42.29-6.36 2.6v-146z" data-original="#000000" class="" style="fill:#778E98" data-old_color="#000000"/><path d="m376 318v146l120-49v-135z" data-original="#000000" class="" style="fill:#778E98" data-old_color="#000000"/><path d="m256 280v135l-120 49v-146l15.53-4.92z" data-original="#000000" class="" style="fill:#778E98" data-old_color="#000000"/><path d="m256 134v146l-6.36-2.6-103.57-42.29-10.07-4.11v-135z" data-original="#000000" class="" style="fill:#778E98" data-old_color="#000000"/><path d="m136 318v146l-120-49v-135l104.47 33.08z" data-original="#000000" class="" style="fill:#778E98" data-old_color="#000000"/><path d="m376 318v146l-120-49v-135l104.47 33.08z" data-original="#000000" class="" style="fill:#778E98" data-old_color="#000000"/></g><path d="m499.143 269.632-115.143-44.655v-127.995a7.877 7.877 0 0 0 -4.857-9.35l-120.25-46.632a7.989 7.989 0 0 0 -5.84.021l-120 47.545a7.993 7.993 0 0 0 -5.043 7.434h-.01v129.019l-114.947 45.543a7.993 7.993 0 0 0 -5.043 7.438h-.01v136.168h.008a8 8 0 0 0 4.992 7.155l120 48.636a8 8 0 0 0 6.01 0l117-47.418 117 47.418a8 8 0 0 0 6.01 0l120-48.636a8 8 0 0 0 4.944-8.271h.036v-134.07a7.877 7.877 0 0 0 -4.857-9.35zm-131.143-44.613-104 41.206v-121.8l104-37.825zm-111.969-167.972 97.469 37.803-97.285 35.376-97.468-34.634zm-8.031 87.239v121.025l-104-40.334v-117.644zm-120 306.385-104-42.151v-119.187l104 36.953zm8.219-138.445-97.472-34.634 95.4-37.8 95.177 38.576zm7.781 14.2 104-37.826v119.92l-104 42.151zm224 124.245-104-42.151v-119.187l104 36.953zm8.219-138.445-94.362-33.526 96.043-38.929 95.6 37.079zm111.781 96.294-104 42.151v-124.249l104-37.822z" fill="#004fac" data-original="#004FAC" class="active-path" style="fill:#5B6D76" data-old_color="#004fac"/></g></g> </svg>
