<?xml version="1.0"?>
<svg xmlns="http://www.w3.org/2000/svg" height="512px" viewBox="0 -3 400 400" width="512px" class=""><g><path d="m313.03125 44.558594h36.96875c22.089844 0 40 17.910156 40 40v259.941406c0 22.089844-17.910156 40-40 40h-300c-22.089844 0-40-17.910156-40-40v-259.941406c0-22.089844 17.910156-40 40-40zm0 0" fill="#e48e66" data-original="#E48E66" class="" style="fill:#778E98" data-old_color="#e48e66"/><path d="m200 44.558594h-150c-22.089844 0-40 17.910156-40 40v259.941406c0 22.089844 17.910156 40 40 40h150zm0 0" fill="#d18162" data-original="#D18162" class="" style="fill:#778E98" data-old_color="#d18162"/><g fill="#63316d"><path d="m350 34.25h-27v-24.25c0-5.523438-4.476562-10-10-10s-10 4.476562-10 10v24.25h-206v-24.25c0-5.523438-4.476562-10-10-10s-10 4.476562-10 10v24.25h-27c-27.570312 0-50 22.738281-50 50.308594v259.941406c.0507812 27.527344 22.410156 49.800781 49.9375 49.75h300.0625c27.527344.085938 49.914062-22.160156 50-49.6875v-260c0-27.574219-22.429688-50.3125-50-50.3125zm30 310.25c-.039062 16.46875-13.421875 29.789062-29.890625 29.75h-300.109375c-16.46875.097656-29.898438-13.171875-30-29.640625v-260.050781c0-16.539063 13.457031-30.308594 30-30.308594h27v35.089844c0 5.523437 4.476562 10 10 10s10-4.476563 10-10v-35.089844h206v35.089844c0 5.523437 4.476562 10 10 10s10-4.476563 10-10v-35.089844h27c16.542969 0 30 13.769531 30 30.308594zm0 0" data-original="#000000" class="active-path" style="fill:#4F5F66" data-old_color="#000000"/><path d="m307.46875 224.25h-214.9375c-5.523438 0-10 4.476562-10 10s4.476562 10 10 10h214.9375c5.523438 0 10-4.476562 10-10s-4.476562-10-10-10zm0 0" data-original="#000000" class="active-path" style="fill:#4F5F66" data-old_color="#000000"/><path d="m307.46875 296.25h-214.9375c-5.523438 0-10 4.476562-10 10s4.476562 10 10 10h214.9375c5.523438 0 10-4.476562 10-10s-4.476562-10-10-10zm0 0" data-original="#000000" class="active-path" style="fill:#4F5F66" data-old_color="#000000"/><path d="m92.53125 173.25h116.429688c5.523437 0 10-4.476562 10-10s-4.476563-10-10-10h-116.429688c-5.523438 0-10 4.476562-10 10s4.476562 10 10 10zm0 0" data-original="#000000" class="active-path" style="fill:#4F5F66" data-old_color="#000000"/></g></g> </svg>
