<?xml version="1.0"?>
<svg xmlns="http://www.w3.org/2000/svg" xmlns:xlink="http://www.w3.org/1999/xlink" version="1.1" id="Layer_1" x="0px" y="0px" viewBox="0 0 512 512" style="enable-background:new 0 0 512 512;" xml:space="preserve" width="512px" height="512px" class=""><g><path style="fill:#505E65" d="M447.958,103.748v383.017c0,13.919-11.317,25.236-25.236,25.236H89.278  c-13.919,0-25.236-11.317-25.236-25.236V25.236C64.042,11.317,75.359,0,89.278,0h254.933c3.309,0,6.294,1.331,8.464,3.501h0.012  l91.771,91.771c2.254,2.266,3.453,5.275,3.477,8.356C447.946,103.664,447.958,103.7,447.958,103.748z M423.981,486.764V115.736  h-66.524c-13.918,0-25.236-11.317-25.236-25.236V23.977H89.278c-0.695,0-1.259,0.563-1.259,1.259v461.529  c0,0.695,0.563,1.259,1.259,1.259h333.445C423.418,488.023,423.981,487.46,423.981,486.764z M357.458,91.759h49.572l-50.831-50.831  V90.5C356.199,91.196,356.762,91.759,357.458,91.759z" data-original="#1E0478" class="active-path" data-old_color="#1E0478"/><g>
	<path style="fill:#778E98" d="M423.981,115.736v371.029c0,0.695-0.563,1.259-1.259,1.259H89.278c-0.695,0-1.259-0.563-1.259-1.259   V25.236c0-0.695,0.563-1.259,1.259-1.259h242.945V90.5c0,13.919,11.317,25.236,25.236,25.236   C357.458,115.736,423.981,115.736,423.981,115.736z M374.074,176.002c0-6.618-5.359-11.988-11.988-11.988h-212.17   c-6.63,0-11.988,5.371-11.988,11.988s5.359,11.988,11.988,11.988h212.17C368.715,187.99,374.074,182.619,374.074,176.002z    M374.074,248.339c0-6.618-5.359-11.988-11.988-11.988h-212.17c-6.63,0-11.988,5.371-11.988,11.988s5.359,11.988,11.988,11.988   h212.17C368.715,260.328,374.074,254.957,374.074,248.339z M374.074,320.677c0-6.618-5.359-11.988-11.988-11.988h-212.17   c-6.63,0-11.988,5.371-11.988,11.988c0,6.63,5.359,11.988,11.988,11.988h212.17C368.715,332.666,374.074,327.307,374.074,320.677z    M267.988,393.027c0-6.63-5.371-11.988-11.988-11.988H149.915c-6.63,0-11.988,5.359-11.988,11.988   c0,6.618,5.359,11.988,11.988,11.988H256C262.618,405.016,267.988,399.645,267.988,393.027z" data-original="#94E7EF" class="" data-old_color="#94E7EF"/>
	<path style="fill:#778E98" d="M407.03,91.759h-49.572c-0.695,0-1.259-0.563-1.259-1.259V40.928L407.03,91.759z" data-original="#94E7EF" class="" data-old_color="#94E7EF"/>
</g><g>
	<path style="fill:#505E65" d="M362.085,164.013c6.63,0,11.988,5.371,11.988,11.988s-5.359,11.988-11.988,11.988h-212.17   c-6.63,0-11.988-5.371-11.988-11.988s5.359-11.988,11.988-11.988H362.085z" data-original="#1E0478" class="active-path" data-old_color="#1E0478"/>
	<path style="fill:#505E65" d="M362.085,236.351c6.63,0,11.988,5.371,11.988,11.988s-5.359,11.988-11.988,11.988h-212.17   c-6.63,0-11.988-5.371-11.988-11.988s5.359-11.988,11.988-11.988H362.085z" data-original="#1E0478" class="active-path" data-old_color="#1E0478"/>
	<path style="fill:#505E65" d="M362.085,308.689c6.63,0,11.988,5.371,11.988,11.988c0,6.63-5.359,11.988-11.988,11.988h-212.17   c-6.63,0-11.988-5.359-11.988-11.988c0-6.618,5.359-11.988,11.988-11.988H362.085z" data-original="#1E0478" class="active-path" data-old_color="#1E0478"/>
	<path style="fill:#505E65" d="M256,381.039c6.618,0,11.988,5.359,11.988,11.988c0,6.618-5.371,11.988-11.988,11.988H149.915   c-6.63,0-11.988-5.371-11.988-11.988c0-6.63,5.359-11.988,11.988-11.988H256z" data-original="#1E0478" class="active-path" data-old_color="#1E0478"/>
</g></g> </svg>
